<svg width="93" height="93" viewBox="0 0 93 93" fill="none" xmlns="http://www.w3.org/2000/svg">
<path d="M46.5 0C58.8326 0 70.66 4.89909 79.3805 13.6195C88.1009 22.34 93 34.1674 93 46.5C93 58.8326 88.1009 70.66 79.3805 79.3805C70.66 88.1009 58.8326 93 46.5 93C34.1674 93 22.34 88.1009 13.6195 79.3805C4.89909 70.66 0 58.8326 0 46.5C0 34.1674 4.89909 22.34 13.6195 13.6195C22.34 4.89909 34.1674 0 46.5 0ZM42.1406 21.7969V46.5C42.1406 47.9531 42.8672 49.3154 44.0842 50.1328L61.5217 61.7578C63.5197 63.102 66.2262 62.557 67.5703 60.5408C68.9145 58.5246 68.3695 55.8363 66.3533 54.4922L50.8594 44.175V21.7969C50.8594 19.3811 48.9158 17.4375 46.5 17.4375C44.0842 17.4375 42.1406 19.3811 42.1406 21.7969Z" fill="white"/>
</svg>
