<svg width="31" height="31" viewBox="0 0 31 31" fill="none" xmlns="http://www.w3.org/2000/svg">
<path d="M15.0385 8.13357C10.782 8.13357 7.3486 11.5677 7.3486 15.8252C7.3486 20.0827 10.782 23.5168 15.0385 23.5168C19.2951 23.5168 22.7284 20.0827 22.7284 15.8252C22.7284 11.5677 19.2951 8.13357 15.0385 8.13357ZM15.0385 20.8258C12.2878 20.8258 10.0391 18.5832 10.0391 15.8252C10.0391 13.0672 12.2811 10.8246 15.0385 10.8246C17.7959 10.8246 20.0379 13.0672 20.0379 15.8252C20.0379 18.5832 17.7892 20.8258 15.0385 20.8258ZM24.8366 7.81895C24.8366 8.81638 24.0335 9.61299 23.043 9.61299C22.0458 9.61299 21.2493 8.80969 21.2493 7.81895C21.2493 6.82821 22.0524 6.0249 23.043 6.0249C24.0335 6.0249 24.8366 6.82821 24.8366 7.81895ZM29.9297 9.63977C29.816 7.23655 29.2672 5.1078 27.507 3.35392C25.7535 1.60005 23.6252 1.05112 21.2226 0.930629C18.7463 0.790051 11.3241 0.790051 8.84776 0.930629C6.45178 1.04443 4.3235 1.59335 2.56332 3.34723C0.803143 5.10111 0.261035 7.22986 0.140566 9.63307C1.96074e-05 12.1099 1.96074e-05 19.5338 0.140566 22.0106C0.254342 24.4138 0.803143 26.5426 2.56332 28.2965C4.3235 30.0503 6.44508 30.5993 8.84776 30.7198C11.3241 30.8603 18.7463 30.8603 21.2226 30.7198C23.6252 30.606 25.7535 30.057 27.507 28.2965C29.2605 26.5426 29.8093 24.4138 29.9297 22.0106C30.0703 19.5338 30.0703 12.1166 29.9297 9.63977ZM26.7306 24.6682C26.2086 25.9803 25.198 26.9911 23.8796 27.5199C21.9052 28.3032 17.2203 28.1224 15.0385 28.1224C12.8567 28.1224 8.16511 28.2965 6.19745 27.5199C4.88569 26.9978 3.87509 25.987 3.34637 24.6682C2.56332 22.6934 2.74402 18.0075 2.74402 15.8252C2.74402 13.6429 2.57001 8.95026 3.34637 6.98217C3.8684 5.67011 4.87899 4.65929 6.19745 4.13045C8.1718 3.34723 12.8567 3.52797 15.0385 3.52797C17.2203 3.52797 21.9119 3.35392 23.8796 4.13045C25.1913 4.6526 26.2019 5.66342 26.7306 6.98217C27.5137 8.95696 27.333 13.6429 27.333 15.8252C27.333 18.0075 27.5137 22.7001 26.7306 24.6682Z" fill="#494949"/>
</svg>
