<svg width="69" height="93" viewBox="0 0 69 93" fill="none" xmlns="http://www.w3.org/2000/svg">
<path d="M38.7586 90.9103C47.9766 79.2187 69 50.8821 69 34.9655C69 15.6616 53.5469 0 34.5 0C15.4531 0 0 15.6616 0 34.9655C0 50.8821 21.0234 79.2187 30.2414 90.9103C32.4516 93.6966 36.5484 93.6966 38.7586 90.9103ZM34.5 23.3103C37.55 23.3103 40.4751 24.5383 42.6317 26.724C44.7884 28.9098 46 31.8743 46 34.9655C46 38.0566 44.7884 41.0212 42.6317 43.2069C40.4751 45.3927 37.55 46.6206 34.5 46.6206C31.45 46.6206 28.5249 45.3927 26.3683 43.2069C24.2116 41.0212 23 38.0566 23 34.9655C23 31.8743 24.2116 28.9098 26.3683 26.724C28.5249 24.5383 31.45 23.3103 34.5 23.3103Z" fill="white"/>
</svg>
