<svg width="93" height="69" viewBox="0 0 93 69" fill="none" xmlns="http://www.w3.org/2000/svg">
<path d="M8.71875 0C3.90527 0 0 3.86328 0 8.625C0 11.3383 1.28965 13.8898 3.4875 15.525L43.0125 44.85C45.0832 46.3773 47.9168 46.3773 49.9875 44.85L89.5125 15.525C91.7103 13.8898 93 11.3383 93 8.625C93 3.86328 89.0947 0 84.2812 0H8.71875ZM0 20.125V57.5C0 63.843 5.21309 69 11.625 69H81.375C87.7869 69 93 63.843 93 57.5V20.125L53.475 49.45C49.3336 52.5227 43.6664 52.5227 39.525 49.45L0 20.125Z" fill="white"/>
</svg>
