<svg width="93" height="93" viewBox="0 0 93 93" fill="none" xmlns="http://www.w3.org/2000/svg">
<path d="M29.9512 4.47226C28.5526 1.09389 24.8655 -0.704272 21.3418 0.258381L5.35816 4.61756C2.19775 5.4894 0 8.3592 0 11.6286C0 56.5645 36.4355 93 81.3714 93C84.6408 93 87.5106 90.8023 88.3824 87.6418L92.7416 71.6582C93.7043 68.1345 91.9061 64.4474 88.5277 63.0488L71.091 55.7835C68.1304 54.5484 64.6975 55.4021 62.6814 57.8904L55.3435 66.8449C42.5565 60.7965 32.2035 50.4435 26.1551 37.6565L35.1096 30.3367C37.598 28.3025 38.4516 24.8878 37.2165 21.9272L29.9512 4.49042V4.47226Z" fill="white"/>
</svg>
